<?xml version="1.0" encoding="UTF-8" standalone="no"?>
<!-- Created with Inkscape (http://www.inkscape.org/) -->

<svg
   width="128"
   height="128"
   viewBox="0 0 33.866665 33.866667"
   version="1.1"
   id="svg5"
   xml:space="preserve"
   inkscape:version="1.2 (dc2aedaf03, 2022-05-15)"
   sodipodi:docname="icon.svg"
   inkscape:export-filename="icon-48.png"
   inkscape:export-xdpi="36"
   inkscape:export-ydpi="36"
   xmlns:inkscape="http://www.inkscape.org/namespaces/inkscape"
   xmlns:sodipodi="http://sodipodi.sourceforge.net/DTD/sodipodi-0.dtd"
   xmlns="http://www.w3.org/2000/svg"
   xmlns:svg="http://www.w3.org/2000/svg"><sodipodi:namedview
     id="namedview7"
     pagecolor="#ffffff"
     bordercolor="#999999"
     borderopacity="1"
     inkscape:showpageshadow="0"
     inkscape:pageopacity="0"
     inkscape:pagecheckerboard="0"
     inkscape:deskcolor="#d1d1d1"
     inkscape:document-units="mm"
     showgrid="false"
     inkscape:zoom="5.6568542"
     inkscape:cx="83.526989"
     inkscape:cy="65.142212"
     inkscape:window-width="1920"
     inkscape:window-height="1051"
     inkscape:window-x="-9"
     inkscape:window-y="-9"
     inkscape:window-maximized="1"
     inkscape:current-layer="layer1" /><defs
     id="defs2" /><g
     inkscape:label="Layer 1"
     inkscape:groupmode="layer"
     id="layer1"><path
       style="fill:#0096db;fill-opacity:1;stroke:#008cc8;stroke-width:0.368987;stroke-linecap:round;stroke-linejoin:round;stroke-miterlimit:4;stroke-dasharray:none;stroke-opacity:1"
       d="M 11.586988,0.94503559 C 8.4457168,1.0035463 4.6525067,2.4468677 0.4528628,6.0946837 L 1.5713488,8.5184549 2.1801744,8.1656126 V 6.9156753 C 2.5414416,6.190313 3.0461162,5.5231739 4.0366305,5.0569132 V 19.034536 H 3.5223576 l 0.00461,0.49813 H 7.013879 V 19.048373 H 6.4903786 V 15.52456 C 25.95344,19.885711 23.337668,0.72616171 11.586988,0.94503559 Z M 11.441701,2.2918312 c 9.41035,0.065999 9.628248,16.6353448 -4.9513196,11.6668468 V 3.5602173 C 8.3426508,2.6594673 10.000475,2.2817232 11.441701,2.2918312 Z"
       id="path2996"
       inkscape:connector-curvature="0" /><path
       style="fill:#0066cc;fill-opacity:1;stroke-width:0.168534"
       d="m 16.959155,32.617855 c -1.320947,-0.765971 -1.80299,-2.700116 -0.977647,-3.922688 0.226388,-0.335349 0.802743,-0.881011 1.280787,-1.212586 l 0.869171,-0.602865 -0.662427,-0.867566 c -0.927019,-1.214096 -1.397897,-2.818886 -1.39195,-4.743877 0.0026,-0.834249 0.09076,-1.812724 0.195968,-2.174386 l 0.191281,-0.657568 -0.399199,-0.474421 c -0.586458,-0.696964 -1.61017,-4.133973 -1.61017,-5.405976 v -0.34782 l 1.053346,0.116888 c 1.517746,0.168423 4.105857,0.748373 5.182457,1.161297 l 0.926943,0.355523 c 1.686401,-0.267172 3.434736,-0.316313 5.140324,0.130355 l 0.660224,0.168452 c -0.59001,-0.397915 -1.215657,-0.529916 -1.806744,-0.634157 l -0.893717,-0.116133 c 1.159986,-0.710442 2.585015,-1.56316 3.946679,-1.644265 0.07525,-1.2e-5 0.121053,0.65566 0.101782,1.457049 l -0.03504,1.457073 c 0.325081,0.144832 0.623834,0.346698 0.917064,0.545055 l -5.38e-4,1.51388 5.38e-4,1.358155 c -0.0029,0.151811 -0.133026,0.07748 -0.184375,0.05461 -0.126011,-0.05596 -0.29923,-0.134539 -0.862641,-0.42731 -1.270004,-0.702465 -2.707311,-1.32639 -4.118392,-1.343651 -0.724814,9.9e-4 -1.346264,-0.0086 -2.108583,0.373107 -1.486195,0.770529 -2.403191,1.979359 -2.495241,4.121475 -0.106867,2.486932 0.592773,3.993976 2.224911,4.792505 0.784332,0.416241 1.49878,0.495222 2.376272,0.549965 l 1.435191,0.08953 V 24.746931 23.206357 H 24.48288 23.050332 v -1.264015 -1.264013 h 3.282946 3.282946 l 0.04563,3.389616 0.04562,3.389615 0.866854,0.323239 c 2.18346,0.814186 3.798789,3.330538 2.748271,4.281242 -0.544076,0.492382 -1.448235,0.461265 -2.668663,-0.439625 -0.8104,-0.646604 -1.563398,-0.894659 -2.5395,-0.879175 -0.813798,0.01292 -1.595131,0.387568 -3.37875,0.944796 -3.582648,1.119265 -4.326544,1.386344 -5.792506,1.382058 -0.917355,-0.0042 -1.338871,-0.07827 -1.983962,-0.45227 z m 4.321491,-3.189595 1.34828,-0.661792 -1.011211,0.08243 c -1.848897,0.150699 -2.935815,0.620506 -2.722376,1.17672 0.09779,0.243686 0.227596,0.2665 0.575123,0.179747 0.254047,-0.06341 1.068628,-0.41311 1.810184,-0.777095 z M 17.26457,16.907021 17.63041,16.341986 17.354857,16.066432 17.079304,15.790879 h 0.387229 c 0.537874,0 0.380216,-0.354426 -0.325037,-0.730701 l -0.579837,-0.309362 0.800543,0.07799 c 0.876429,0.08539 0.934029,0.04063 0.526841,-0.409303 l -0.273701,-0.302435 0.521015,0.149426 c 0.286556,0.08219 0.599324,0.197822 0.695038,0.256977 0.09571,0.05915 0.174025,0.02306 0.174025,-0.08021 0,-0.207287 -1.119722,-0.734177 -2.9915,-1.407666 l -1.22188,-0.439646 v 0.382306 c 0,0.982085 0.906965,3.580137 1.465106,4.196874 0.387853,0.428572 0.591424,0.374395 1.007424,-0.268114 z"
       id="path139"
       sodipodi:nodetypes="csscscscsscssccccccsccccccccscccccccccccccssccsccccsccscccccssccsccssscssscc" /><path
       id="rect84368"
       style="fill:#808080;stroke-width:0.285004"
       d="m 4.6424001,21.378036 1.9552055,-0.85501 c 0.6568371,2.640088 3.3511646,4.664782 6.3364534,5.142553 l 0.02709,-2.917733 3.437959,3.900662 -3.505353,3.85262 0.02492,-2.931683 C 8.7745886,26.923135 5.5625225,24.432112 4.6424001,21.378036 Z"
       sodipodi:nodetypes="cccccccc"
       inkscape:transform-center-x="0.56998891" /></g></svg>
